<?xml version="1.0" standalone="no"?>
<!DOCTYPE svg PUBLIC "-//W3C//DTD SVG 20010904//EN"
 "http://www.w3.org/TR/2001/REC-SVG-20010904/DTD/svg10.dtd">
<svg version="1.0" xmlns="http://www.w3.org/2000/svg"
 width="800.000000pt" height="600.000000pt" viewBox="0 0 800.000000 600.000000"
 preserveAspectRatio="xMidYMid meet">

<g transform="translate(0.000000,600.000000) scale(0.100000,-0.100000)"
fill="#000000" stroke="none">
<path d="M3820 4510 c-515 -71 -955 -384 -1175 -835 -55 -113 -87 -201 -122
-340 -26 -104 -28 -122 -28 -335 0 -213 2 -231 28 -335 35 -139 67 -227 122
-340 203 -416 593 -715 1065 -816 151 -33 429 -33 580 0 472 101 862 399 1065
816 55 113 87 201 122 340 26 104 28 122 28 335 0 213 -2 231 -28 335 -35 139
-67 227 -122 340 -202 415 -596 718 -1060 815 -114 24 -369 35 -475 20z m460
-30 c295 -59 547 -190 754 -390 215 -208 348 -435 421 -720 35 -135 45 -216
45 -370 0 -154 -10 -235 -45 -370 -73 -285 -206 -512 -421 -720 -206 -199
-453 -328 -754 -391 -86 -18 -137 -22 -280 -22 -199 0 -305 17 -490 80 -528
179 -920 656 -1000 1218 -12 90 -12 320 0 410 78 546 455 1018 963 1206 99 37
258 76 358 89 113 14 329 4 449 -20z"/>
<path d="M3482 3488 l3 -133 93 -3 c50 -1 92 -6 92 -10 0 -4 -5 -24 -11 -45
-13 -50 9 -80 55 -75 31 3 35 8 70 91 l16 37 136 0 c108 0 134 -3 127 -12 -84
-111 -325 -412 -352 -440 -19 -21 -133 -113 -253 -205 -120 -93 -220 -175
-223 -184 -8 -24 3 -45 31 -58 39 -17 61 -13 106 19 26 19 53 30 74 30 l33 0
3 -62 3 -63 523 -3 522 -2 0 140 0 140 -50 0 -50 0 25 40 c41 66 27 104 -36
98 -27 -2 -40 -13 -70 -57 -60 -87 -45 -82 -236 -79 l-171 3 279 349 c247 309
288 355 362 411 47 35 87 70 90 78 3 8 -1 24 -9 36 -17 23 -64 28 -108 11 -26
-9 -26 -9 -26 35 l0 45 -525 0 -526 0 3 -132z m432 83 c-96 -27 -175 -87 -206
-157 -11 -22 -17 -24 -95 -24 l-83 0 0 100 0 100 223 -1 222 0 -61 -18z m576
-17 c0 -27 -4 -35 -14 -31 -19 7 -234 55 -271 60 -16 2 41 5 128 6 l157 1 0
-36z m-187 -125 c42 -7 76 -16 75 -20 -3 -7 -363 -290 -503 -394 l-39 -30 55
70 c31 39 102 129 158 200 l103 130 -163 5 c-158 5 -162 6 -137 22 14 9 41 21
59 27 44 13 290 7 392 -10z m-197 -505 l-246 -309 178 -5 c162 -5 174 -6 142
-19 -88 -33 -326 -22 -539 27 l-74 17 309 240 c170 131 345 267 389 301 44 34
81 61 83 59 2 -2 -107 -142 -242 -311z m384 -414 l0 -100 -480 0 -480 0 0 40
c0 22 5 40 11 40 6 0 45 -9 87 -19 130 -33 237 -44 366 -38 171 8 274 47 361
136 35 37 44 41 87 41 l48 0 0 -100z"/>
</g>
</svg>
